# xmcd
#
# Track frame offsets:
#	150
#	22468
#	50694
#	82300
#	110035
#	133830
#	164527
#	204299
#	238920
#	261738
#	283731
#	316004
#	334438
#
# Disc length: 4734 seconds
#
# Revision: 0
# Processed by: cddbd v1.5.2PL0 Copyright (c) Steve Scherf et al.
# Submitted via: EasyCDDAExtractor 9.0.0.1
#
DISCID=da127c0d
DTITLE=Various Artist - House Deluxe Volume 11 Disk 2
DYEAR=2006
DGENRE=House
TTITLE0=Kid Alex - Young and Beautiful (Club Remix)
TTITLE1=Tomcraft - Da Disco (JCA Remix)
TTITLE2=Moonbootica - Mopedgang (Extended)
TTITLE3=Antoine Clamaran - Take Off (Original Mix)
TTITLE4=Player and Remady (Main Mix) - Nothing To Loose (Main Mix)
TTITLE5=DJ Jeroenski - The One
TTITLE6=Damian Strong - Sunshine At Pinkville (Original Mix)
TTITLE7=Sebastian Krieg - Changes (Original Mix)
TTITLE8=Global Brothers vs. D-Luxe - Tell Me Why (Chriss Ortega and Thomas Gold 
TTITLE8=Winter Mix)
TTITLE9=Aston Martinez and Mario Held pres. The Institution - Rock The Disqo (Vo
TTITLE9=cal Mix)
TTITLE10=Josh The Funky 1 - Universal Sound (Ian Carey Remix)
TTITLE11=Mike Monday - Tooting Warrior (Original)
TTITLE12=Tom Share - Philosophy (Original Mix)
EXTD=(c) 2006 MORE Music and Media GmbH and Co.
EXTT0=
EXTT1=
EXTT2=
EXTT3=
EXTT4=
EXTT5=
EXTT6=
EXTT7=
EXTT8=
EXTT9=
EXTT10=
EXTT11=
EXTT12=
PLAYORDER=
